<svg width="400" height="53" viewBox="0 0 400 53" fill="none" xmlns="http://www.w3.org/2000/svg">
<rect width="400" height="53" fill="#23232E"/>
<g filter="url(#filter0_i_1_2)">
<path d="M74.8701 43.9997L70.7619 37.6135L68.0131 40.3327C67.5779 40.7629 66.8723 40.7629 66.437 40.3327L64.1307 38.0512L59.1005 40.5392C58.9422 40.6175 58.7715 40.6557 58.6025 40.6557C58.3133 40.6557 58.0281 40.5444 57.8141 40.3328L55.3226 37.8682L51.9414 44H74.8701V43.9997Z" fill="#AEAED0" fill-opacity="0.8"/>
<path d="M56.3401 31.418L59.2056 26.2215C59.8744 25.0085 61.1074 24.2564 62.5035 24.2099C63.8945 24.1639 65.1808 24.8314 65.9308 25.9973L70.581 33.2258C73.9925 30.6585 76.2 26.6022 76.2 22.0442C76.2 14.3001 69.8311 8 62.0024 8C55.3154 8 49.6977 12.5984 48.2005 18.7653L56.3401 31.418Z" fill="#AEAED0" fill-opacity="0.8"/>
<path d="M58.822 38.2118L63.8522 35.7238C64.2815 35.5118 64.7993 35.5948 65.1386 35.9301L67.2249 37.9941L69.5603 35.7456L64.0505 27.1808C63.7283 26.6801 63.1755 26.3906 62.5785 26.4132C61.9788 26.4332 61.4493 26.7562 61.1621 27.2771L56.432 35.8555L58.822 38.2118Z" fill="#C4B7C8" fill-opacity="0.8"/>
<path d="M50.7668 31.8027C50.3316 32.233 49.626 32.233 49.1907 31.8027L47.1044 29.7388L42.1438 34.646C41.9268 34.8606 41.6415 34.9689 41.3556 34.9689C41.0911 34.9689 40.826 34.8762 40.6143 34.6894L36.9267 31.4382L30 43.9997H49.4024L55.1208 33.6292L52.7096 29.881L50.7668 31.8027Z" fill="#AEAED0" fill-opacity="0.8"/>
<path d="M41.3117 32.351L46.3164 27.4002C46.7516 26.97 47.4572 26.97 47.8925 27.4002L49.9788 29.4641L51.4836 27.9754L46.2 19.7621C45.8779 19.2615 45.3272 18.9703 44.7282 18.9946C44.1285 19.0146 43.599 19.3376 43.3117 19.8586L38.0201 29.455L41.3117 32.351Z" fill="#C4B7C8" fill-opacity="0.89"/>
</g>
<g filter="url(#filter1_i_1_2)">
<path d="M86.61 38L92.04 18.2H98.31L99.69 29.51L105.27 18.2H110.52L111.06 33.02C111.14 34.98 111.66 36.26 112.62 36.86C112.4 37.26 111.97 37.65 111.33 38.03C110.69 38.41 109.94 38.6 109.08 38.6C108.24 38.6 107.57 38.48 107.07 38.24C106.57 38 106.18 37.68 105.9 37.28C105.4 36.56 105.15 35.51 105.15 34.13V24.86L99.24 38H95.52L93.42 24.53L90.06 38H86.61ZM120.446 38.6C116.046 38.6 113.846 36.53 113.846 32.39C113.846 29.45 114.656 27.03 116.276 25.13C117.996 23.11 120.346 22.1 123.326 22.1C125.486 22.1 127.116 22.6 128.216 23.6C129.316 24.6 129.866 26.15 129.866 28.25C129.866 31.45 129.006 33.98 127.286 35.84C125.606 37.68 123.326 38.6 120.446 38.6ZM121.226 25.55C120.986 26.09 120.766 26.77 120.566 27.59C120.386 28.39 120.176 29.43 119.936 30.71C119.696 31.99 119.576 33.42 119.576 35C119.576 35.52 119.656 35.95 119.816 36.29C119.996 36.63 120.316 36.8 120.776 36.8C121.236 36.8 121.606 36.69 121.886 36.47C122.186 36.25 122.446 35.88 122.666 35.36C123.066 34.44 123.426 33.13 123.746 31.43C124.066 29.71 124.236 28.48 124.256 27.74C124.296 27 124.316 26.36 124.316 25.82C124.316 25.26 124.236 24.8 124.076 24.44C123.916 24.08 123.606 23.9 123.146 23.9C122.706 23.9 122.336 24.04 122.036 24.32C121.736 24.6 121.466 25.01 121.226 25.55ZM141.261 36.74C140.301 37.98 138.631 38.6 136.251 38.6C135.011 38.6 133.941 38.23 133.041 37.49C132.141 36.73 131.691 35.81 131.691 34.73C131.691 34.13 131.721 33.68 131.781 33.38L133.791 22.7L139.881 22.1L137.691 33.68C137.611 34.12 137.571 34.47 137.571 34.73C137.571 35.89 137.921 36.47 138.621 36.47C139.401 36.47 140.071 35.94 140.631 34.88C140.811 34.54 140.941 34.15 141.021 33.71L143.151 22.7L149.061 22.1L146.841 33.8C146.781 34.1 146.751 34.41 146.751 34.73C146.751 35.05 146.841 35.39 147.021 35.75C147.201 36.09 147.581 36.3 148.161 36.38C148.041 36.86 147.771 37.26 147.351 37.58C146.471 38.26 145.551 38.6 144.591 38.6C143.651 38.6 142.901 38.43 142.341 38.09C141.781 37.75 141.421 37.3 141.261 36.74ZM151.154 35C151.154 34.46 151.294 33.51 151.574 32.15L153.164 24.05H151.394L151.514 23.15C153.914 22.43 156.274 21.19 158.594 19.43H160.034L159.314 22.7H161.654L161.384 24.05H159.074L157.544 32.15C157.284 33.39 157.154 34.22 157.154 34.64C157.154 35.6 157.574 36.18 158.414 36.38C158.214 37.06 157.754 37.6 157.034 38C156.314 38.4 155.444 38.6 154.424 38.6C153.404 38.6 152.604 38.28 152.024 37.64C151.444 37 151.154 36.12 151.154 35ZM162.687 37.1C162.227 36.58 161.887 35.91 161.667 35.09C161.467 34.27 161.367 33.19 161.367 31.85C161.367 30.51 161.597 29.23 162.057 28.01C162.517 26.79 163.167 25.74 164.007 24.86C165.727 23.02 168.007 22.1 170.847 22.1C171.867 22.1 172.747 22.27 173.487 22.61L178.617 22.1L176.397 33.8C176.337 34.04 176.307 34.38 176.307 34.82C176.307 35.26 176.437 35.62 176.697 35.9C176.977 36.18 177.317 36.34 177.717 36.38C177.517 37.06 177.047 37.6 176.307 38C175.587 38.4 174.817 38.6 173.997 38.6C173.177 38.6 172.487 38.44 171.927 38.12C171.387 37.82 171.037 37.41 170.877 36.89C170.557 37.39 170.057 37.8 169.377 38.12C168.697 38.44 167.897 38.6 166.977 38.6C166.077 38.6 165.257 38.48 164.517 38.24C163.777 38 163.167 37.62 162.687 37.1ZM169.017 24.92C168.797 25.28 168.587 25.77 168.387 26.39C168.187 26.99 167.917 28.11 167.577 29.75C167.257 31.37 167.097 32.76 167.097 33.92C167.097 35.08 167.187 35.83 167.367 36.17C167.547 36.51 167.797 36.68 168.117 36.68C168.757 36.68 169.307 36.38 169.767 35.78C170.247 35.16 170.577 34.31 170.757 33.23L172.347 24.44C171.927 24.08 171.467 23.9 170.967 23.9C170.487 23.9 170.097 23.98 169.797 24.14C169.517 24.3 169.257 24.56 169.017 24.92ZM187.435 36.35C186.815 37.85 185.515 38.6 183.535 38.6C182.515 38.6 181.685 38.25 181.045 37.55C180.505 36.93 180.235 36.31 180.235 35.69C180.235 34.07 180.605 31.68 181.345 28.52L182.455 22.7L188.545 22.1L186.715 31.58C186.375 33.06 186.205 34.06 186.205 34.58C186.205 35.72 186.615 36.31 187.435 36.35ZM182.995 18.53C182.995 17.75 183.315 17.15 183.955 16.73C184.615 16.31 185.415 16.1 186.355 16.1C187.295 16.1 188.045 16.31 188.605 16.73C189.185 17.15 189.475 17.75 189.475 18.53C189.475 19.31 189.155 19.9 188.515 20.3C187.895 20.7 187.115 20.9 186.175 20.9C185.235 20.9 184.465 20.7 183.865 20.3C183.285 19.9 182.995 19.31 182.995 18.53ZM202.68 38.6C200.26 38.6 199.05 37.66 199.05 35.78C199.07 35.26 199.16 34.56 199.32 33.68L199.86 30.92C200.4 28.32 200.67 26.73 200.67 26.15C200.67 24.99 200.33 24.41 199.65 24.41C198.51 24.41 197.64 25.9 197.04 28.88L195.27 38L189.24 38.6L192.36 22.67L197.28 22.1L196.8 25.04C197.74 23.08 199.65 22.1 202.53 22.1C203.93 22.1 204.92 22.4 205.5 23C206.1 23.58 206.4 24.53 206.4 25.85C206.4 27.09 206.08 29.16 205.44 32.06C205.14 33.36 204.99 34.26 204.99 34.76C204.99 35.24 205.12 35.62 205.38 35.9C205.66 36.18 206 36.34 206.4 36.38C206.2 37.06 205.75 37.6 205.05 38C204.37 38.4 203.58 38.6 202.68 38.6ZM228.631 22.1C227.011 22.1 225.611 21.83 224.431 21.29L223.471 26.15H229.261C229.261 27.21 228.991 28.08 228.451 28.76C227.931 29.42 227.191 29.75 226.231 29.75C225.191 29.75 224.191 29.56 223.231 29.18C223.031 29.1 222.921 29.05 222.901 29.03L221.191 38H214.651L218.461 18.2H231.841C231.841 19.42 231.551 20.38 230.971 21.08C230.411 21.76 229.631 22.1 228.631 22.1ZM243.039 32.93C243.539 33.27 243.789 33.82 243.789 34.58C243.789 35.32 243.599 35.93 243.219 36.41C242.839 36.89 242.339 37.29 241.719 37.61C240.439 38.27 239.109 38.6 237.729 38.6C236.349 38.6 235.249 38.45 234.429 38.15C233.629 37.85 232.959 37.42 232.419 36.86C231.359 35.8 230.829 34.3 230.829 32.36C230.829 29.34 231.649 26.91 233.289 25.07C235.049 23.09 237.459 22.1 240.519 22.1C242.419 22.1 243.839 22.5 244.779 23.3C245.479 23.9 245.829 24.69 245.829 25.67C245.829 29.19 242.789 30.95 236.709 30.95C236.629 31.47 236.589 31.95 236.589 32.39C236.589 33.31 236.789 33.95 237.189 34.31C237.609 34.65 238.199 34.82 238.959 34.82C239.719 34.82 240.499 34.65 241.299 34.31C242.119 33.95 242.699 33.49 243.039 32.93ZM236.919 29.66C238.339 29.66 239.459 29.22 240.279 28.34C241.099 27.5 241.509 26.41 241.509 25.07C241.509 24.61 241.419 24.26 241.239 24.02C241.079 23.76 240.829 23.63 240.489 23.63C240.149 23.63 239.829 23.7 239.529 23.84C239.249 23.96 238.959 24.24 238.659 24.68C237.919 25.68 237.339 27.34 236.919 29.66ZM255.826 27.47C256.106 26.73 256.246 26.04 256.246 25.4C256.246 24.22 255.766 23.63 254.806 23.63C254.306 23.63 253.846 23.86 253.426 24.32C253.026 24.76 252.826 25.26 252.826 25.82C252.826 26.22 252.986 26.58 253.306 26.9C253.766 27.34 254.586 27.92 255.766 28.64C256.946 29.36 257.756 30.02 258.196 30.62C258.656 31.2 258.886 31.9 258.886 32.72C258.886 33.52 258.686 34.29 258.286 35.03C257.906 35.77 257.366 36.4 256.666 36.92C255.166 38.04 253.216 38.6 250.816 38.6C249.516 38.6 248.366 38.26 247.366 37.58C246.366 36.92 245.866 36.2 245.866 35.42C245.866 34.64 246.146 34.02 246.706 33.56C247.286 33.1 247.996 32.87 248.836 32.87C249.676 32.87 250.356 33.03 250.876 33.35C250.616 34.01 250.486 34.56 250.486 35C250.486 36.32 251.046 36.98 252.166 36.98C252.646 36.98 253.046 36.83 253.366 36.53C253.686 36.23 253.846 35.82 253.846 35.3C253.846 34.28 252.986 33.23 251.266 32.15C249.866 31.23 249.006 30.59 248.686 30.23C248.146 29.59 247.876 28.87 247.876 28.07C247.876 27.27 248.066 26.49 248.446 25.73C248.826 24.97 249.366 24.32 250.066 23.78C251.526 22.66 253.526 22.1 256.066 22.1C257.366 22.1 258.396 22.36 259.156 22.88C259.936 23.4 260.326 24.1 260.326 24.98C260.326 25.86 260.056 26.55 259.516 27.05C258.996 27.55 258.256 27.8 257.296 27.8C256.636 27.8 256.146 27.69 255.826 27.47ZM261.926 35C261.926 34.46 262.066 33.51 262.346 32.15L263.936 24.05H262.166L262.286 23.15C264.686 22.43 267.046 21.19 269.366 19.43H270.806L270.086 22.7H272.426L272.156 24.05H269.846L268.316 32.15C268.056 33.39 267.926 34.22 267.926 34.64C267.926 35.6 268.346 36.18 269.186 36.38C268.986 37.06 268.526 37.6 267.806 38C267.086 38.4 266.216 38.6 265.196 38.6C264.176 38.6 263.376 38.28 262.796 37.64C262.216 37 261.926 36.12 261.926 35ZM279.485 36.35C278.865 37.85 277.565 38.6 275.585 38.6C274.565 38.6 273.735 38.25 273.095 37.55C272.555 36.93 272.285 36.31 272.285 35.69C272.285 34.07 272.655 31.68 273.395 28.52L274.505 22.7L280.595 22.1L278.765 31.58C278.425 33.06 278.255 34.06 278.255 34.58C278.255 35.72 278.665 36.31 279.485 36.35ZM275.045 18.53C275.045 17.75 275.365 17.15 276.005 16.73C276.665 16.31 277.465 16.1 278.405 16.1C279.345 16.1 280.095 16.31 280.655 16.73C281.235 17.15 281.525 17.75 281.525 18.53C281.525 19.31 281.205 19.9 280.565 20.3C279.945 20.7 279.165 20.9 278.225 20.9C277.285 20.9 276.515 20.7 275.915 20.3C275.335 19.9 275.045 19.31 275.045 18.53ZM292.931 23.21C293.591 22.47 294.491 22.1 295.631 22.1C296.331 22.1 296.951 22.29 297.491 22.67C298.031 23.05 298.301 23.6 298.301 24.32C298.301 25.02 298.191 25.75 297.971 26.51C297.751 27.27 297.471 28.04 297.131 28.82C296.451 30.34 295.641 31.73 294.701 32.99C293.381 34.81 292.081 36.2 290.801 37.16C289.541 38.12 288.221 38.6 286.841 38.6C285.721 38.6 284.821 38.47 284.141 38.21C284.021 34.01 283.881 31.16 283.721 29.66C283.581 28.16 283.451 27 283.331 26.18C283.131 24.58 282.731 23.59 282.131 23.21C282.591 22.81 283.041 22.53 283.481 22.37C283.941 22.19 284.631 22.1 285.551 22.1C286.491 22.1 287.291 22.47 287.951 23.21C288.611 23.93 289.001 24.94 289.121 26.24C289.261 27.52 289.331 28.94 289.331 30.5C289.331 32.06 289.271 33.78 289.151 35.66C289.771 35.22 290.411 34.33 291.071 32.99C291.971 31.13 292.581 29.08 292.901 26.84C293.001 26.16 293.051 25.46 293.051 24.74C293.051 24.02 293.011 23.51 292.931 23.21ZM300.411 37.1C299.951 36.58 299.611 35.91 299.391 35.09C299.191 34.27 299.091 33.19 299.091 31.85C299.091 30.51 299.321 29.23 299.781 28.01C300.241 26.79 300.891 25.74 301.731 24.86C303.451 23.02 305.731 22.1 308.571 22.1C309.591 22.1 310.471 22.27 311.211 22.61L316.341 22.1L314.121 33.8C314.061 34.04 314.031 34.38 314.031 34.82C314.031 35.26 314.161 35.62 314.421 35.9C314.701 36.18 315.041 36.34 315.441 36.38C315.241 37.06 314.771 37.6 314.031 38C313.311 38.4 312.541 38.6 311.721 38.6C310.901 38.6 310.211 38.44 309.651 38.12C309.111 37.82 308.761 37.41 308.601 36.89C308.281 37.39 307.781 37.8 307.101 38.12C306.421 38.44 305.621 38.6 304.701 38.6C303.801 38.6 302.981 38.48 302.241 38.24C301.501 38 300.891 37.62 300.411 37.1ZM306.741 24.92C306.521 25.28 306.311 25.77 306.111 26.39C305.911 26.99 305.641 28.11 305.301 29.75C304.981 31.37 304.821 32.76 304.821 33.92C304.821 35.08 304.911 35.83 305.091 36.17C305.271 36.51 305.521 36.68 305.841 36.68C306.481 36.68 307.031 36.38 307.491 35.78C307.971 35.16 308.301 34.31 308.481 33.23L310.071 24.44C309.651 24.08 309.191 23.9 308.691 23.9C308.211 23.9 307.821 23.98 307.521 24.14C307.241 24.3 306.981 24.56 306.741 24.92ZM325.129 36.35C324.509 37.85 323.209 38.6 321.229 38.6C320.229 38.6 319.409 38.25 318.769 37.55C318.249 36.97 317.989 36.35 317.989 35.69C317.989 34.19 318.339 31.8 319.039 28.52L321.229 17L327.319 16.4L324.409 31.58C324.069 33.06 323.899 34.06 323.899 34.58C323.899 35.72 324.309 36.31 325.129 36.35Z" fill="#AEAED0"/>
</g>
<defs>
<filter id="filter0_i_1_2" x="30" y="8" width="46.2" height="40" filterUnits="userSpaceOnUse" color-interpolation-filters="sRGB">
<feFlood flood-opacity="0" result="BackgroundImageFix"/>
<feBlend mode="normal" in="SourceGraphic" in2="BackgroundImageFix" result="shape"/>
<feColorMatrix in="SourceAlpha" type="matrix" values="0 0 0 0 0 0 0 0 0 0 0 0 0 0 0 0 0 0 127 0" result="hardAlpha"/>
<feOffset dy="4"/>
<feGaussianBlur stdDeviation="2"/>
<feComposite in2="hardAlpha" operator="arithmetic" k2="-1" k3="1"/>
<feColorMatrix type="matrix" values="0 0 0 0 0 0 0 0 0 0 0 0 0 0 0 0 0 0 0.25 0"/>
<feBlend mode="normal" in2="shape" result="effect1_innerShadow_1_2"/>
</filter>
<filter id="filter1_i_1_2" x="86.61" y="16.1" width="240.709" height="26.5" filterUnits="userSpaceOnUse" color-interpolation-filters="sRGB">
<feFlood flood-opacity="0" result="BackgroundImageFix"/>
<feBlend mode="normal" in="SourceGraphic" in2="BackgroundImageFix" result="shape"/>
<feColorMatrix in="SourceAlpha" type="matrix" values="0 0 0 0 0 0 0 0 0 0 0 0 0 0 0 0 0 0 127 0" result="hardAlpha"/>
<feOffset dy="4"/>
<feGaussianBlur stdDeviation="2"/>
<feComposite in2="hardAlpha" operator="arithmetic" k2="-1" k3="1"/>
<feColorMatrix type="matrix" values="0 0 0 0 0 0 0 0 0 0 0 0 0 0 0 0 0 0 0.25 0"/>
<feBlend mode="normal" in2="shape" result="effect1_innerShadow_1_2"/>
</filter>
</defs>
</svg>
