<svg width="400" height="53" viewBox="0 0 400 53" fill="none" xmlns="http://www.w3.org/2000/svg">
<g clip-path="url(#clip0_15_2)">
<rect width="400" height="53" fill="#262627"/>
<g filter="url(#filter0_i_15_2)">
<path d="M93.6456 30.9C93.6456 32.6 93.1756 33.88 92.2356 34.74C91.3156 35.58 89.9856 36 88.2456 36H84.2856V33.72H88.5456C89.2856 33.72 89.8856 33.5 90.3456 33.06C90.8056 32.62 91.0356 32.09 91.0356 31.47V28.35C91.0356 27.75 90.8756 27.27 90.5556 26.91C90.2556 26.53 89.7956 26.34 89.1756 26.34H88.5756C87.0956 26.34 85.9256 25.91 85.0656 25.05C84.2056 24.17 83.7756 22.9 83.7756 21.24V20.1C83.7756 18.4 84.2356 17.13 85.1556 16.29C86.0956 15.43 87.4356 15 89.1756 15H93.1656V17.28H88.8756C88.1356 17.28 87.5356 17.5 87.0756 17.94C86.6156 18.38 86.3856 18.91 86.3856 19.53V21.81C86.3856 22.43 86.5856 22.95 86.9856 23.37C87.3856 23.77 87.9056 23.97 88.5456 23.97H89.1456C90.5656 23.97 91.6656 24.38 92.4456 25.2C93.2456 26.02 93.6456 27.26 93.6456 28.92V30.9ZM97.7092 21H100.109V21.72C100.729 21.24 101.529 21 102.509 21H103.289C104.909 21 106.109 21.38 106.889 22.14C107.689 22.9 108.089 24.12 108.089 25.8V36H105.539V25.2C105.539 24.6 105.359 24.13 104.999 23.79C104.659 23.43 104.189 23.25 103.589 23.25H102.209C101.549 23.25 101.059 23.43 100.739 23.79C100.419 24.13 100.259 24.5 100.259 24.9V36H97.7092V21ZM123.029 31.2C123.029 32.88 122.609 34.1 121.769 34.86C120.949 35.62 119.669 36 117.929 36H117.539C115.799 36 114.509 35.62 113.669 34.86C112.849 34.1 112.439 32.88 112.439 31.2V25.8C112.439 24.12 112.849 22.9 113.669 22.14C114.509 21.38 115.799 21 117.539 21H117.929C119.669 21 120.949 21.38 121.769 22.14C122.609 22.9 123.029 24.12 123.029 25.8V31.2ZM120.479 25.2C120.479 24.58 120.289 24.1 119.909 23.76C119.529 23.42 118.969 23.25 118.229 23.25H117.239C116.499 23.25 115.939 23.42 115.559 23.76C115.179 24.1 114.989 24.58 114.989 25.2V31.8C114.989 32.42 115.179 32.9 115.559 33.24C115.939 33.58 116.499 33.75 117.239 33.75H118.229C118.969 33.75 119.529 33.58 119.909 33.24C120.289 32.9 120.479 32.42 120.479 31.8V25.2ZM140.77 36H136.84L134.95 27.87L132.88 36H129.04L126.04 21H128.68L131.11 34.08L133.78 23.7H136.33L138.82 34.08L141.25 21H143.74L140.77 36ZM157.718 31.2C157.718 32.88 157.298 34.1 156.458 34.86C155.638 35.62 154.358 36 152.618 36H147.338V15H149.888V21.6C150.488 21.2 151.238 21 152.138 21H152.618C154.378 21 155.668 21.38 156.488 22.14C157.308 22.88 157.718 24.1 157.718 25.8V31.2ZM151.838 23.25C151.178 23.25 150.688 23.43 150.368 23.79C150.048 24.13 149.888 24.5 149.888 24.9V33.75H152.918C153.658 33.75 154.218 33.58 154.598 33.24C154.978 32.9 155.168 32.42 155.168 31.8V25.2C155.168 24.58 154.978 24.1 154.598 23.76C154.218 23.42 153.658 23.25 152.918 23.25H151.838ZM172.511 31.2C172.511 32.88 172.091 34.1 171.251 34.86C170.431 35.62 169.151 36 167.411 36H167.021C165.281 36 163.991 35.62 163.151 34.86C162.331 34.1 161.921 32.88 161.921 31.2V25.8C161.921 24.12 162.331 22.9 163.151 22.14C163.991 21.38 165.281 21 167.021 21H167.411C169.151 21 170.431 21.38 171.251 22.14C172.091 22.9 172.511 24.12 172.511 25.8V31.2ZM169.961 25.2C169.961 24.58 169.771 24.1 169.391 23.76C169.011 23.42 168.451 23.25 167.711 23.25H166.721C165.981 23.25 165.421 23.42 165.041 23.76C164.661 24.1 164.471 24.58 164.471 25.2V31.8C164.471 32.42 164.661 32.9 165.041 33.24C165.421 33.58 165.981 33.75 166.721 33.75H167.711C168.451 33.75 169.011 33.58 169.391 33.24C169.771 32.9 169.961 32.42 169.961 31.8V25.2ZM185.866 36C185.606 36 185.316 35.92 184.996 35.76C184.696 35.6 184.436 35.38 184.216 35.1C183.756 35.7 183.146 36 182.386 36H180.316C178.796 36 177.686 35.7 176.986 35.1C176.306 34.48 175.966 33.43 175.966 31.95V31.35C175.966 28.25 177.426 26.7 180.346 26.7H183.466V25.2C183.466 24.58 183.276 24.1 182.896 23.76C182.516 23.42 181.956 23.25 181.216 23.25H177.166V21H180.916C182.656 21 183.936 21.38 184.756 22.14C185.596 22.9 186.016 24.12 186.016 25.8V33C186.016 33.3 186.126 33.53 186.346 33.69C186.586 33.83 186.976 33.9 187.516 33.9V36H185.866ZM182.086 33.75C182.686 33.75 183.066 33.61 183.226 33.33C183.386 33.05 183.466 32.69 183.466 32.25V28.95H180.316C179.796 28.95 179.366 29.12 179.026 29.46C178.686 29.8 178.516 30.23 178.516 30.75V32.25C178.516 32.77 178.636 33.15 178.876 33.39C179.116 33.63 179.496 33.75 180.016 33.75H182.086ZM191.108 21H193.508V21.81C194.168 21.27 194.968 21 195.908 21H198.098V23.4H195.608C194.948 23.4 194.458 23.62 194.138 24.06C193.818 24.5 193.658 24.93 193.658 25.35V36H191.108V21ZM208.488 35.31C207.828 35.77 207.028 36 206.088 36H205.458C203.698 36 202.408 35.63 201.588 34.89C200.768 34.13 200.358 32.9 200.358 31.2V25.8C200.358 24.12 200.768 22.9 201.588 22.14C202.428 21.38 203.718 21 205.458 21H208.338V15H210.888V36H208.488V35.31ZM206.388 33.75C207.048 33.75 207.538 33.58 207.858 33.24C208.178 32.88 208.338 32.5 208.338 32.1V23.25H205.158C204.418 23.25 203.858 23.42 203.478 23.76C203.098 24.1 202.908 24.58 202.908 25.2V31.8C202.908 32.42 203.098 32.9 203.478 33.24C203.858 33.58 204.418 33.75 205.158 33.75H206.388ZM228.731 36C226.991 36 225.651 35.58 224.711 34.74C223.791 33.88 223.331 32.6 223.331 30.9V20.1C223.331 18.4 223.791 17.13 224.711 16.29C225.651 15.43 226.991 15 228.731 15H232.391V17.28H228.431C227.691 17.28 227.091 17.5 226.631 17.94C226.171 18.38 225.941 18.91 225.941 19.53V31.47C225.941 32.09 226.171 32.62 226.631 33.06C227.091 33.5 227.691 33.72 228.431 33.72H232.391V36H228.731ZM245.987 31.2C245.987 32.88 245.567 34.1 244.727 34.86C243.907 35.62 242.627 36 240.887 36H240.497C238.757 36 237.467 35.62 236.627 34.86C235.807 34.1 235.397 32.88 235.397 31.2V25.8C235.397 24.12 235.807 22.9 236.627 22.14C237.467 21.38 238.757 21 240.497 21H240.887C242.627 21 243.907 21.38 244.727 22.14C245.567 22.9 245.987 24.12 245.987 25.8V31.2ZM243.437 25.2C243.437 24.58 243.247 24.1 242.867 23.76C242.487 23.42 241.927 23.25 241.187 23.25H240.197C239.457 23.25 238.897 23.42 238.517 23.76C238.137 24.1 237.947 24.58 237.947 25.2V31.8C237.947 32.42 238.137 32.9 238.517 33.24C238.897 33.58 239.457 33.75 240.197 33.75H241.187C241.927 33.75 242.487 33.58 242.867 33.24C243.247 32.9 243.437 32.42 243.437 31.8V25.2ZM250.492 21H252.892V21.72C253.512 21.24 254.312 21 255.292 21H255.472C257.292 21 258.592 21.46 259.372 22.38C260.112 21.46 261.142 21 262.462 21H262.642C264.262 21 265.462 21.38 266.242 22.14C267.042 22.9 267.442 24.12 267.442 25.8V36H264.892V25.2C264.892 24.6 264.712 24.13 264.352 23.79C264.012 23.43 263.542 23.25 262.942 23.25H262.162C261.542 23.25 261.072 23.44 260.752 23.82C260.452 24.18 260.282 24.57 260.242 24.99V36H257.692V25.2C257.692 24.6 257.522 24.13 257.182 23.79C256.842 23.43 256.372 23.25 255.772 23.25H254.992C254.352 23.25 253.862 23.42 253.522 23.76C253.202 24.08 253.042 24.43 253.042 24.81V36H250.492V21ZM272.084 21H274.484V21.72C275.104 21.24 275.904 21 276.884 21H277.064C278.884 21 280.184 21.46 280.964 22.38C281.704 21.46 282.734 21 284.054 21H284.234C285.854 21 287.054 21.38 287.834 22.14C288.634 22.9 289.034 24.12 289.034 25.8V36H286.484V25.2C286.484 24.6 286.304 24.13 285.944 23.79C285.604 23.43 285.134 23.25 284.534 23.25H283.754C283.134 23.25 282.664 23.44 282.344 23.82C282.044 24.18 281.874 24.57 281.834 24.99V36H279.284V25.2C279.284 24.6 279.114 24.13 278.774 23.79C278.434 23.43 277.964 23.25 277.364 23.25H276.584C275.944 23.25 275.454 23.42 275.114 23.76C274.794 24.08 274.634 24.43 274.634 24.81V36H272.084V21ZM301.146 35.31C300.486 35.77 299.686 36 298.746 36H298.326C296.706 36 295.496 35.62 294.696 34.86C293.916 34.1 293.526 32.88 293.526 31.2V21H296.076V31.8C296.076 32.4 296.246 32.88 296.586 33.24C296.946 33.58 297.426 33.75 298.026 33.75H299.046C299.686 33.75 300.156 33.59 300.456 33.27C300.776 32.95 300.956 32.59 300.996 32.19V21H303.546V36H301.146V35.31ZM308.354 21H310.754V21.72C311.374 21.24 312.174 21 313.154 21H313.934C315.554 21 316.754 21.38 317.534 22.14C318.334 22.9 318.734 24.12 318.734 25.8V36H316.184V25.2C316.184 24.6 316.004 24.13 315.644 23.79C315.304 23.43 314.834 23.25 314.234 23.25H312.854C312.194 23.25 311.704 23.43 311.384 23.79C311.064 24.13 310.904 24.5 310.904 24.9V36H308.354V21ZM323.233 17.7V15H326.083V17.7H323.233ZM323.383 36V21H325.933V36H323.383ZM334.037 36C333.017 36 332.237 35.67 331.697 35.01C331.157 34.35 330.887 33.48 330.887 32.4V23.25H328.937V21H330.887V17.4H333.437V21H336.917V23.25H333.437V32.55C333.437 32.99 333.547 33.3 333.767 33.48C333.987 33.66 334.327 33.75 334.787 33.75H336.917V36H334.037ZM346.143 37.32C345.903 38.22 345.653 38.94 345.393 39.48C345.133 40.04 344.763 40.47 344.283 40.77C343.823 41.09 343.203 41.25 342.423 41.25C342.003 41.25 341.433 41.19 340.713 41.07V38.88C341.273 38.96 341.793 39 342.273 39C342.833 39 343.233 38.55 343.473 37.65L343.953 36H343.353L338.703 21H341.463L344.943 33.39L347.883 21H350.493L346.143 37.32Z" fill="#7F8185"/>
</g>
<g clip-path="url(#clip1_15_2)" filter="url(#filter1_i_15_2)">
<path d="M53 46C64.0457 46 73 37.0457 73 26C73 14.9543 64.0457 6 53 6C41.9543 6 33 14.9543 33 26C33 37.0457 41.9543 46 53 46Z" fill="#595A5C"/>
<g filter="url(#filter2_i_15_2)">
<path d="M72.9996 26.0212L57.4445 10.4445L57.3157 19.2398L48.5876 10.5116L47.2763 41.0173L52.2434 45.9844C52.4945 45.9938 52.7466 46 53.0002 46C64.0385 46 72.9883 37.0571 72.9996 26.0212Z" fill="#373738"/>
</g>
<g filter="url(#filter3_d_15_2)">
<path d="M48.5556 41.5556C47.3282 41.5556 46.3334 40.5607 46.3334 39.3334V15.8095C46.3334 13.7972 47.1327 11.8673 48.5556 10.4446C49.9784 11.8673 50.7777 13.7972 50.7777 15.8095V39.3334C50.7778 40.5607 49.7829 41.5556 48.5556 41.5556Z" fill="#B0AC44"/>
</g>
<path d="M48.5556 10.4445C48.5402 10.4598 48.5259 10.4761 48.5107 10.4916V41.5533C48.5258 41.5535 48.5405 41.5555 48.5556 41.5555C49.7829 41.5555 50.7777 40.5607 50.7777 39.3334V15.8093C50.7778 13.7972 49.9784 11.8673 48.5556 10.4445Z" fill="#838038"/>
<g filter="url(#filter4_d_15_2)">
<path d="M57.4444 41.5556C56.2171 41.5556 55.2223 40.5607 55.2223 39.3334V15.8095C55.2223 13.7972 56.0216 11.8673 57.4444 10.4446C58.8673 11.8673 59.6666 13.7972 59.6666 15.8095V39.3334C59.6666 40.5607 58.6718 41.5556 57.4444 41.5556Z" fill="#B0AC44"/>
</g>
<path d="M57.4669 10.4681V41.5544C58.6837 41.5422 59.6667 40.553 59.6667 39.3333V15.8093C59.6666 13.808 58.8753 11.8886 57.4669 10.4681Z" fill="#838038"/>
<path d="M47.6465 23.9798H49.4647C49.9668 23.9798 50.3738 23.5727 50.3738 23.0707C50.3738 22.5686 49.9667 22.1616 49.4647 22.1616H47.6465C47.1444 22.1616 46.7374 22.5687 46.7374 23.0707C46.7373 23.5728 47.1444 23.9798 47.6465 23.9798Z" fill="#2E2E34"/>
<path d="M49.4646 22.1616H48.5107V23.9798H49.4646C49.9667 23.9798 50.3737 23.5728 50.3737 23.0708C50.3738 22.5686 49.9667 22.1616 49.4646 22.1616Z" fill="#1D1D1F"/>
<path d="M47.6465 30.0404H49.4647C49.9668 30.0404 50.3738 29.6334 50.3738 29.1313C50.3738 28.6292 49.9667 28.2223 49.4647 28.2223H47.6465C47.1444 28.2223 46.7374 28.6293 46.7374 29.1313C46.7373 29.6334 47.1444 30.0404 47.6465 30.0404Z" fill="#2E2E34"/>
<path d="M49.4646 28.2222H48.5107V30.0404H49.4646C49.9667 30.0404 50.3737 29.6334 50.3737 29.1313C50.3738 28.6292 49.9667 28.2222 49.4646 28.2222Z" fill="#1D1D1F"/>
<path d="M56.5354 23.9798H58.3536C58.8557 23.9798 59.2627 23.5727 59.2627 23.0707C59.2627 22.5686 58.8556 22.1616 58.3536 22.1616H56.5354C56.0333 22.1616 55.6263 22.5687 55.6263 23.0707C55.6263 23.5728 56.0333 23.9798 56.5354 23.9798Z" fill="#2E2E34"/>
<path d="M58.3535 22.1616H57.4669V23.9798H58.3535C58.8556 23.9798 59.2626 23.5728 59.2626 23.0708C59.2627 22.5686 58.8556 22.1616 58.3535 22.1616Z" fill="#1D1D1F"/>
<path d="M56.5354 30.0404H58.3536C58.8557 30.0404 59.2627 29.6334 59.2627 29.1313C59.2627 28.6292 58.8556 28.2223 58.3536 28.2223H56.5354C56.0333 28.2223 55.6263 28.6293 55.6263 29.1313C55.6263 29.6334 56.0333 30.0404 56.5354 30.0404Z" fill="#2E2E34"/>
<path d="M58.3535 28.2222H57.4669V30.0404H58.3535C58.8556 30.0404 59.2626 29.6334 59.2626 29.1313C59.2627 28.6292 58.8556 28.2222 58.3535 28.2222Z" fill="#1D1D1F"/>
</g>
</g>
<defs>
<filter id="filter0_i_15_2" x="83.7756" y="15" width="266.717" height="30.25" filterUnits="userSpaceOnUse" color-interpolation-filters="sRGB">
<feFlood flood-opacity="0" result="BackgroundImageFix"/>
<feBlend mode="normal" in="SourceGraphic" in2="BackgroundImageFix" result="shape"/>
<feColorMatrix in="SourceAlpha" type="matrix" values="0 0 0 0 0 0 0 0 0 0 0 0 0 0 0 0 0 0 127 0" result="hardAlpha"/>
<feOffset dy="4"/>
<feGaussianBlur stdDeviation="2"/>
<feComposite in2="hardAlpha" operator="arithmetic" k2="-1" k3="1"/>
<feColorMatrix type="matrix" values="0 0 0 0 0 0 0 0 0 0 0 0 0 0 0 0 0 0 0.25 0"/>
<feBlend mode="normal" in2="shape" result="effect1_innerShadow_15_2"/>
</filter>
<filter id="filter1_i_15_2" x="33" y="6" width="40" height="44" filterUnits="userSpaceOnUse" color-interpolation-filters="sRGB">
<feFlood flood-opacity="0" result="BackgroundImageFix"/>
<feBlend mode="normal" in="SourceGraphic" in2="BackgroundImageFix" result="shape"/>
<feColorMatrix in="SourceAlpha" type="matrix" values="0 0 0 0 0 0 0 0 0 0 0 0 0 0 0 0 0 0 127 0" result="hardAlpha"/>
<feOffset dy="4"/>
<feGaussianBlur stdDeviation="2"/>
<feComposite in2="hardAlpha" operator="arithmetic" k2="-1" k3="1"/>
<feColorMatrix type="matrix" values="0 0 0 0 0 0 0 0 0 0 0 0 0 0 0 0 0 0 0.25 0"/>
<feBlend mode="normal" in2="shape" result="effect1_innerShadow_15_2"/>
</filter>
<filter id="filter2_i_15_2" x="47.2763" y="10.4445" width="25.7233" height="39.5555" filterUnits="userSpaceOnUse" color-interpolation-filters="sRGB">
<feFlood flood-opacity="0" result="BackgroundImageFix"/>
<feBlend mode="normal" in="SourceGraphic" in2="BackgroundImageFix" result="shape"/>
<feColorMatrix in="SourceAlpha" type="matrix" values="0 0 0 0 0 0 0 0 0 0 0 0 0 0 0 0 0 0 127 0" result="hardAlpha"/>
<feOffset dy="4"/>
<feGaussianBlur stdDeviation="2"/>
<feComposite in2="hardAlpha" operator="arithmetic" k2="-1" k3="1"/>
<feColorMatrix type="matrix" values="0 0 0 0 0 0 0 0 0 0 0 0 0 0 0 0 0 0 0.25 0"/>
<feBlend mode="normal" in2="shape" result="effect1_innerShadow_15_2"/>
</filter>
<filter id="filter3_d_15_2" x="42.3334" y="10.4446" width="12.4444" height="39.1109" filterUnits="userSpaceOnUse" color-interpolation-filters="sRGB">
<feFlood flood-opacity="0" result="BackgroundImageFix"/>
<feColorMatrix in="SourceAlpha" type="matrix" values="0 0 0 0 0 0 0 0 0 0 0 0 0 0 0 0 0 0 127 0" result="hardAlpha"/>
<feOffset dy="4"/>
<feGaussianBlur stdDeviation="2"/>
<feComposite in2="hardAlpha" operator="out"/>
<feColorMatrix type="matrix" values="0 0 0 0 0 0 0 0 0 0 0 0 0 0 0 0 0 0 0.25 0"/>
<feBlend mode="normal" in2="BackgroundImageFix" result="effect1_dropShadow_15_2"/>
<feBlend mode="normal" in="SourceGraphic" in2="effect1_dropShadow_15_2" result="shape"/>
</filter>
<filter id="filter4_d_15_2" x="51.2223" y="10.4446" width="12.4444" height="39.1109" filterUnits="userSpaceOnUse" color-interpolation-filters="sRGB">
<feFlood flood-opacity="0" result="BackgroundImageFix"/>
<feColorMatrix in="SourceAlpha" type="matrix" values="0 0 0 0 0 0 0 0 0 0 0 0 0 0 0 0 0 0 127 0" result="hardAlpha"/>
<feOffset dy="4"/>
<feGaussianBlur stdDeviation="2"/>
<feComposite in2="hardAlpha" operator="out"/>
<feColorMatrix type="matrix" values="0 0 0 0 0 0 0 0 0 0 0 0 0 0 0 0 0 0 0.25 0"/>
<feBlend mode="normal" in2="BackgroundImageFix" result="effect1_dropShadow_15_2"/>
<feBlend mode="normal" in="SourceGraphic" in2="effect1_dropShadow_15_2" result="shape"/>
</filter>
<clipPath id="clip0_15_2">
<rect width="400" height="53" fill="white"/>
</clipPath>
<clipPath id="clip1_15_2">
<rect width="40" height="40" fill="white" transform="translate(33 6)"/>
</clipPath>
</defs>
</svg>
